<?xml version="1.0" encoding="UTF-8"?>
<svg id="_Слой_7" data-name="Слой 7" xmlns="http://www.w3.org/2000/svg" viewBox="0 0 228.76670527 152.10032291">
  <defs>
    <style>
      .cls-1 {
        fill: #1d1d1b;
      }
    </style>
  </defs>
  <path class="cls-1" d="M0,0H19.71670853V135.20028703l85.60005723-.03022372v16.90003588l-105.31676575,.03022372V0Z"/>
  <path class="cls-1" d="M51.73866221,27.56136192c.18596346,4.84699244-3.90069701,8.72507947-10.40374857,8.72507947-5.75919771,0-9.84642515-3.87808703-9.84642515-8.72507947,0-5.0092163,4.18297055-13.72566486,10.12813173-13.72566486,6.13112464,0,10.122042,8.71644857,10.122042,13.72566486Zm-18.20570956,100.17742277V49.53554484h16.34834279V127.73878469h-16.34834279Z"/>
  <path class="cls-1" d="M63.71609577,71.96934325c0-7.89914553-.12121708-14.37650838-.48489257-20.69621993h9.3254128l.48489257,12.32313876h.36293614c3.27009775-7.26755859,8.72003038-14.06072097,18.40836719-14.06072097,7.99341875,0,11.93539933,6.79970855,14.47889757,15.80486148h0c1.81614727-4.26537229,4.36538326-8.84901045,6.7876523-11.21866442,3.51254403-3.47564924,9.49563305-4.58619706,15.06601916-4.58619706,7.75098459,0,19.25694737,6.63549896,19.25694737,33.1770221v45.02622522h-13.23843845l-.10138815-46.03017054c-1.15696933-13.30787409-1.16397579-17.25646884-9.76276485-17.25646884-6.05530293,0-8.12242475,2.38938801-9.93857202,9.18253826-.48490469,1.89571833-.84784083,4.42350841-.84784083,6.95128637l1.5340306,47.15281475h-15.72989993l-.14022931-48.18046314c-1.16158161-11.82705783-2.6346565-14.19803407-10.74930445-14.19803407-6.66068535,0-8.71040747,4.25304714-9.74880382,8.67811134-.59281644,5.25119509-.79505821,8.72581822-.79505821,11.09547218l-.06431135,42.60491369h-14.10365177v-55.76944518Z"/>
  <path class="cls-1" d="M212.53261501,111.69579741h-.35712821c-4.6383115,7.10406758-14.27097391,12.72851628-28.18590843,12.72851628-20.15814535,0-27.51358929-14.50442026-27.51358929-36.26059899,0-26.78805723,11.81519135-38.62816986,30.01130915-38.62816986,13.3792422,0,22.29873699,5.47585449,26.58100909,12.43177952h.3560394l.53569231-10.80401809h14.80666623c-.35712821,6.06797304-.53569231,12.28408863-.53569231,19.68444131v81.25257534h-15.69839795v-40.4045255Zm0-31.52410228c0-1.77590398-.1785641-3.84809306-.71316761-5.47585449-2.31915575-7.99247122-10.70404704-14.8002537-22.4783899-14.8002537-16.23300146,0-16.98810636,11.39613664-16.98810636,27.52831833,0,14.20813516-.85088324,26.63991468,16.45350285,26.63991468,10.16835473,0,18.90928542-5.18002105,22.4773011-14.20813516,.71316761-1.77590398,1.24885993-4.2916174,1.24885993-6.21566393v-13.46832572Z"/>
  <rect class="cls-1" x="114.08517833" y="135.32749499" width="26.27424407" height="16.77282792"/>
  <rect class="cls-1" x="145.16076498" y="135.32749499" width="26.27424407" height="16.77282792"/>
  <rect class="cls-1" x="176.23635163" y="135.32749499" width="26.27424407" height="16.77282792"/>
</svg>